#N canvas 274 34 1010 697 10;
#X obj -287 743 czero~;
#X obj -88 899 *~;
#X msg -60 879 0;
#X msg -32 879 1;
#X obj -88 939 dac~;
#X obj -180 25 receive fromGUI;
#X obj -180 47 list trim;
#X obj -178 343 send toGUI;
#X obj -180 139 route 1 2 3;
#X floatatom -341 200 5 0 0 0 - - -, f 5;
#X floatatom -307 201 5 0 0 0 - - -, f 5;
#X floatatom -272 201 5 0 0 0 - - -, f 5;
#X obj -341 177 unpack f f f;
#X obj -180 91 route touch;
#X floatatom -159 199 5 0 0 0 - - -, f 5;
#X floatatom -125 199 5 0 0 0 - - -, f 5;
#X floatatom -90 199 5 0 0 0 - - -, f 5;
#X obj -159 175 unpack f f f;
#X floatatom 13 200 5 0 0 0 - - -, f 5;
#X floatatom 47 200 5 0 0 0 - - -, f 5;
#X floatatom 82 200 5 0 0 0 - - -, f 5;
#X obj 13 176 unpack f f f;
#X obj -299 219 expr ($f1-0.5)*2;
#X obj -280 239 expr ($f1-0.5)*2;
#X obj -254 767 czero~;
#X obj -221 790 czero~;
#X obj 53 219 expr ($f1-0.5)*2;
#X obj 72 239 expr ($f1-0.5)*2;
#X obj -121 219 expr ($f1-0.5)*2;
#X obj -102 239 expr ($f1-0.5)*2;
#X text -293 127 Input for zeroes;
#X text -342 745 Filters;
#X obj 130 385 loadbang;
#X obj 107 462 send toGUI;
#X obj 107 392 bng 15 250 50 0 empty empty empty 17 7 0 10 -262144
-1 -1;
#X obj -566 370 receive fromGUI;
#X obj -566 394 list trim;
#X text -504 394 on selection \, receive index and value;
#X obj -278 720 r Z1R;
#X obj -241 720 r Z1C;
#X obj -243 746 r Z2R;
#X obj -205 746 r Z2C;
#X obj -212 769 r Z3R;
#X obj -174 769 r Z3C;
#X obj -299 270 s Z1R;
#X obj -262 270 s Z1C;
#X obj -121 269 s Z2R;
#X obj -83 269 s Z2C;
#X obj 53 269 s Z3R;
#X obj 91 269 s Z3C;
#X obj -178 269 pack 0 0;
#X obj -3 269 pack 0 0;
#X msg -3 292 list /OutputZ3 \$1 \$2;
#X msg -178 292 list /OutputZ2 \$1 \$2;
#X msg -354 293 list /OutputZ1 \$1 \$2;
#X obj -354 270 pack 0 0;
#X obj -351 229 moses 1;
#X obj -173 229 moses 1;
#X obj 2 228 moses 1;
#X msg 128 595 bang;
#X msg 89 595 stop;
#X msg -320 645 1;
#X msg -330 621 0;
#X obj -287 699 *~ 0.1;
#X obj -330 699 *~ 0.1;
#X obj -566 542 unpack f s;
#X msg -563 578 open \$1.wav 0;
#X text -560 526 autoplay;
#X obj -491 540 delay 500 1 msec;
#X obj -330 670 readsf~;
#X text -300 622 0 stops;
#X text -293 644 1 starts;
#N canvas 239 100 450 278 (subpatch) 0;
#X array impulsearray 20 float 3;
#A 0 0 0 1 0 0 0 0 0 0 0 0 0 0 0 0 0 0 0 0 0;
#X coords 0 1 20 -1 200 140 1 0 0;
#X restore 493 445 graph;
#N canvas 0 22 450 278 (subpatch) 0;
#X array /responsearray 30 float 3;
#A 0 0 0 1 0 0 0 0 0 0 0 0 0 0 0 0 0 0 0 0 0 0 0 0 0 0 0 0 0 0 0;
#X coords 0 5 30 -5 200 140 1 0 0;
#X restore 495 604 graph;
#X obj 151 683 czero~;
#X obj 184 707 czero~;
#X obj 217 732 czero~;
#X text 157 617 Response calculation;
#X obj 349 833 *~ 1;
#X obj 89 637 tabplay~ impulsearray;
#X text 130 358 fill the Menu and update impulse;
#X obj 46 509 tabwrite impulsearray;
#X msg 67 484 1;
#X obj 67 462 t b b;
#X obj 166 997 send toGUI;
#X obj 362 345 send toGUI;
#X obj 360 141 route 1 2 3;
#X floatatom 199 202 5 0 0 0 - - -, f 5;
#X floatatom 233 203 5 0 0 0 - - -, f 5;
#X floatatom 268 203 5 0 0 0 - - -, f 5;
#X obj 199 179 unpack f f f;
#X obj 360 96 route touch;
#X floatatom 381 201 5 0 0 0 - - -, f 5;
#X floatatom 415 201 5 0 0 0 - - -, f 5;
#X floatatom 450 201 5 0 0 0 - - -, f 5;
#X obj 381 177 unpack f f f;
#X floatatom 553 202 5 0 0 0 - - -, f 5;
#X floatatom 587 202 5 0 0 0 - - -, f 5;
#X obj 553 178 unpack f f f;
#X obj 241 221 expr ($f1-0.5)*2;
#X obj 260 241 expr ($f1-0.5)*2;
#X obj 593 221 expr ($f1-0.5)*2;
#X obj 419 221 expr ($f1-0.5)*2;
#X obj 438 241 expr ($f1-0.5)*2;
#X obj 362 271 pack 0 0;
#X obj 537 271 pack 0 0;
#X obj 186 272 pack 0 0;
#X obj 189 231 moses 1;
#X obj 367 231 moses 1;
#X obj 542 230 moses 1;
#X text 194 135 Three poles can be input;
#X obj 241 272 s P1R;
#X obj 278 272 s P1C;
#X obj 419 271 s P2R;
#X obj 457 271 s P2C;
#X floatatom 622 202 5 0 0 0 - - -, f 5;
#X obj 612 241 expr ($f1-0.5)*2;
#X obj 631 271 s P3C;
#X obj 593 271 s P3R;
#X msg 186 295 list /OutputP1 \$1 \$2;
#X msg 362 294 list /OutputP2 \$1 \$2;
#X msg 537 294 list /OutputP3 \$1 \$2;
#X obj 264 711 r Z3C;
#X obj 227 711 r Z3R;
#X obj 233 686 r Z2C;
#X obj 195 686 r Z2R;
#X obj 197 660 r Z1C;
#X obj 160 660 r Z1R;
#X obj 259 735 r P1R;
#X obj 296 735 r P1C;
#X obj 295 761 r P2R;
#X obj 332 761 r P2C;
#X obj 326 785 r P3R;
#X obj 363 785 r P3C;
#X obj 250 758 cpole~;
#X obj 283 782 cpole~;
#X obj 316 806 cpole~;
#X obj 176 954 tabwrite~ /responsearray;
#X obj -178 792 r P1R;
#X obj -141 792 r P1C;
#X obj -142 816 r P2R;
#X obj -105 816 r P2C;
#X obj -111 839 r P3R;
#X obj -74 839 r P3C;
#X obj -187 815 cpole~;
#X obj -154 837 cpole~;
#X obj -121 860 cpole~;
#X msg 108 484 2;
#X obj -107 91 s volume;
#X obj -70 860 r volume;
#N canvas 0 22 630 397 (subpatch) 0;
#X array /freqarray 32 float 3;
#A 0 1 1 1 1 1 1 1 1 1 1 1 1 1 1 1 1 1 1 1 1 1 1 1 1 1 1 1 1 1 1 1
1;
#X coords 0 5 32 0 200 140 1 0 0;
#X restore 493 768 graph;
#X obj 1125 1585 framp~;
#X obj 89 616 metro 400;
#X obj 166 830 bng 15 250 50 0 empty empty empty 17 7 0 10 -262144
-1 -1;
#X msg 166 975 list /responsearray refresh;
#X obj 349 953 tabwrite~ /freqarray;
#X obj 349 884 *~;
#X obj 376 884 *~;
#X obj 349 906 +~;
#X obj 349 928 sqrt~;
#X obj 341 997 send toGUI;
#X msg 341 975 list /freqarray refresh;
#X obj 349 862 fft~;
#X msg 107 413 list /Menu LuffeELEVATOR DJKairuiRemixCrazy DJKairuiRemixNotAfraidAnymore
CoachNHorsesShejkenNotStord GftMdFOverlord IngaPengarHogstadielaten
;
#X obj -49 91 s freeze;
#X obj 89 553 r freeze;
#X obj -180 117 spigot 1;
#X obj -86 118 r freeze;
#X obj 360 119 spigot 1;
#X obj -180 69 route /MultiZero /Volume /Freeze /MultiPole;
#X obj 58 370 r freeze;
#X obj 89 573 moses 1;
#X obj -121 118 * -1;
#X obj 454 119 r freeze;
#X obj 419 119 * -1;
#X msg -491 519 bang;
#X obj -566 416 route /Menu;
#X obj 173 576 pack 0 0 0;
#X obj 173 598 s refresh;
#X obj 101 117 r refresh;
#X connect 0 0 24 0;
#X connect 0 1 24 0;
#X connect 1 0 4 0;
#X connect 1 0 4 1;
#X connect 2 0 1 1;
#X connect 3 0 1 1;
#X connect 5 0 6 0;
#X connect 6 0 169 0;
#X connect 8 0 12 0;
#X connect 8 1 17 0;
#X connect 8 2 21 0;
#X connect 9 0 56 0;
#X connect 10 0 22 0;
#X connect 10 0 55 0;
#X connect 11 0 23 0;
#X connect 11 0 55 1;
#X connect 12 0 9 0;
#X connect 12 1 10 0;
#X connect 12 2 11 0;
#X connect 13 0 166 0;
#X connect 14 0 57 0;
#X connect 15 0 28 0;
#X connect 15 0 50 0;
#X connect 16 0 29 0;
#X connect 16 0 50 1;
#X connect 17 0 14 0;
#X connect 17 1 15 0;
#X connect 17 2 16 0;
#X connect 18 0 58 0;
#X connect 19 0 26 0;
#X connect 19 0 51 0;
#X connect 20 0 27 0;
#X connect 20 0 51 1;
#X connect 21 0 18 0;
#X connect 21 1 19 0;
#X connect 21 2 20 0;
#X connect 22 0 44 0;
#X connect 23 0 45 0;
#X connect 24 0 25 0;
#X connect 24 1 25 0;
#X connect 25 0 144 0;
#X connect 25 1 144 0;
#X connect 26 0 48 0;
#X connect 27 0 49 0;
#X connect 28 0 46 0;
#X connect 29 0 47 0;
#X connect 32 0 163 0;
#X connect 34 0 163 0;
#X connect 34 0 83 0;
#X connect 35 0 36 0;
#X connect 36 0 176 0;
#X connect 38 0 0 2;
#X connect 39 0 0 3;
#X connect 40 0 24 2;
#X connect 41 0 24 3;
#X connect 42 0 25 2;
#X connect 43 0 25 3;
#X connect 50 0 53 0;
#X connect 51 0 52 0;
#X connect 52 0 7 0;
#X connect 53 0 7 0;
#X connect 54 0 7 0;
#X connect 55 0 54 0;
#X connect 56 0 55 0;
#X connect 56 0 55 1;
#X connect 56 0 44 0;
#X connect 56 0 45 0;
#X connect 57 0 50 0;
#X connect 57 0 50 1;
#X connect 57 0 46 0;
#X connect 57 0 47 0;
#X connect 58 0 51 0;
#X connect 58 0 51 1;
#X connect 58 0 48 0;
#X connect 58 0 49 0;
#X connect 59 0 152 0;
#X connect 59 0 177 0;
#X connect 60 0 152 0;
#X connect 61 0 69 0;
#X connect 62 0 69 0;
#X connect 63 0 0 0;
#X connect 64 0 0 0;
#X connect 65 1 66 0;
#X connect 66 0 69 0;
#X connect 68 0 61 0;
#X connect 69 0 64 0;
#X connect 69 1 63 0;
#X connect 74 0 75 0;
#X connect 74 1 75 0;
#X connect 75 0 76 0;
#X connect 75 1 76 0;
#X connect 76 0 134 0;
#X connect 76 1 134 0;
#X connect 78 0 137 0;
#X connect 78 0 162 0;
#X connect 79 0 74 0;
#X connect 82 0 81 0;
#X connect 83 0 82 0;
#X connect 83 1 147 0;
#X connect 86 0 90 0;
#X connect 86 1 95 0;
#X connect 86 2 98 0;
#X connect 87 0 107 0;
#X connect 88 0 99 0;
#X connect 88 0 106 0;
#X connect 89 0 100 0;
#X connect 89 0 106 1;
#X connect 90 0 87 0;
#X connect 90 1 88 0;
#X connect 90 2 89 0;
#X connect 91 0 168 0;
#X connect 92 0 108 0;
#X connect 93 0 102 0;
#X connect 93 0 104 0;
#X connect 94 0 103 0;
#X connect 94 0 104 1;
#X connect 95 0 92 0;
#X connect 95 1 93 0;
#X connect 95 2 94 0;
#X connect 96 0 109 0;
#X connect 97 0 101 0;
#X connect 97 0 105 0;
#X connect 98 0 96 0;
#X connect 98 1 97 0;
#X connect 98 2 115 0;
#X connect 99 0 111 0;
#X connect 100 0 112 0;
#X connect 101 0 118 0;
#X connect 102 0 113 0;
#X connect 103 0 114 0;
#X connect 104 0 120 0;
#X connect 105 0 121 0;
#X connect 106 0 119 0;
#X connect 107 0 106 0;
#X connect 107 0 106 1;
#X connect 107 0 111 0;
#X connect 107 0 112 0;
#X connect 108 0 104 0;
#X connect 108 0 104 1;
#X connect 108 0 113 0;
#X connect 108 0 114 0;
#X connect 109 0 105 0;
#X connect 109 0 105 1;
#X connect 109 0 117 0;
#X connect 109 0 118 0;
#X connect 115 0 116 0;
#X connect 115 0 105 1;
#X connect 116 0 117 0;
#X connect 119 0 85 0;
#X connect 120 0 85 0;
#X connect 121 0 85 0;
#X connect 122 0 76 3;
#X connect 123 0 76 2;
#X connect 124 0 75 3;
#X connect 125 0 75 2;
#X connect 126 0 74 3;
#X connect 127 0 74 2;
#X connect 128 0 134 2;
#X connect 129 0 134 3;
#X connect 130 0 135 2;
#X connect 131 0 135 3;
#X connect 132 0 136 2;
#X connect 133 0 136 3;
#X connect 134 0 135 0;
#X connect 134 1 135 0;
#X connect 135 0 136 0;
#X connect 135 1 136 0;
#X connect 136 0 78 0;
#X connect 136 1 78 0;
#X connect 138 0 144 2;
#X connect 139 0 144 3;
#X connect 140 0 145 2;
#X connect 141 0 145 3;
#X connect 142 0 146 2;
#X connect 143 0 146 3;
#X connect 144 0 145 0;
#X connect 144 1 145 0;
#X connect 145 0 146 0;
#X connect 145 1 146 0;
#X connect 146 0 1 0;
#X connect 146 1 1 0;
#X connect 147 0 81 1;
#X connect 149 0 1 1;
#X connect 152 0 79 0;
#X connect 152 0 153 0;
#X connect 153 0 155 0;
#X connect 153 0 161 0;
#X connect 153 0 154 0;
#X connect 153 0 137 0;
#X connect 154 0 84 0;
#X connect 156 0 158 0;
#X connect 157 0 158 1;
#X connect 158 0 159 0;
#X connect 159 0 155 0;
#X connect 161 0 160 0;
#X connect 162 0 156 0;
#X connect 162 0 156 1;
#X connect 162 1 157 0;
#X connect 162 1 157 1;
#X connect 163 0 33 0;
#X connect 165 0 171 0;
#X connect 166 0 8 0;
#X connect 167 0 172 0;
#X connect 168 0 86 0;
#X connect 169 0 13 0;
#X connect 169 1 148 0;
#X connect 169 2 164 0;
#X connect 169 3 91 0;
#X connect 170 0 34 0;
#X connect 171 0 60 0;
#X connect 171 1 59 0;
#X connect 172 0 166 1;
#X connect 173 0 174 0;
#X connect 174 0 168 1;
#X connect 175 0 68 0;
#X connect 176 0 65 0;
#X connect 176 0 175 0;
#X connect 177 0 178 0;
#X connect 179 0 12 0;
#X connect 179 0 17 0;
#X connect 179 0 21 0;
#X connect 179 0 90 0;
#X connect 179 0 95 0;
#X connect 179 0 98 0;
